<svg xmlns="http://www.w3.org/2000/svg" width="40" height="40" viewBox="0 0 40 40">
  <circle cx="20" cy="20" r="18" fill="#FF6B6B"/>
  <path d="M14 12 L18 16 L14 20 L10 16 Z" fill="#FFF"/>
  <path d="M26 12 L22 16 L26 20 L30 16 Z" fill="#FFF"/>
  <ellipse cx="20" cy="22" rx="8" ry="6" fill="#FFF"/>
  <circle cx="17" cy="20" r="2" fill="#333"/>
  <circle cx="23" cy="20" r="2" fill="#333"/>
  <path d="M16 25 Q20 28 24 25" stroke="#333" stroke-width="1.5" fill="none"/>
  <path d="M8 18 L12 16" stroke="#FFF" stroke-width="2"/>
  <path d="M32 18 L28 16" stroke="#FFF" stroke-width="2"/>
  <path d="M8 22 L12 22" stroke="#FFF" stroke-width="2"/>
  <path d="M32 22 L28 22" stroke="#FFF" stroke-width="2"/>
  <path d="M10 26 L14 24" stroke="#FFF" stroke-width="2"/>
  <path d="M30 26 L26 24" stroke="#FFF" stroke-width="2"/>
</svg>
